<svg xmlns="http://www.w3.org/2000/svg" fill="#fff" viewBox="0 0 24 24"><title>Android</title><path d="M18.44 5.559q-1.015 1.748-2.028 3.498-.055-.023-.111-.043a12.098 12.098 0 0 0-8.68.033C7.537 8.897 5.868 6.026 5.6 5.56a1 1 0 0 0-.14-.191 1.104 1.104 0 0 0-1.768 1.299c1.946 3.37-.097-.216 1.947 3.36.017.03-.495.263-1.393 1.017C2.9 12.176.452 14.772 0 18.99h24a11.7 11.7 0 0 0-.746-3.068 12.1 12.1 0 0 0-2.74-4.184 12 12 0 0 0-2.13-1.688c.658-1.121 1.31-2.255 1.964-3.384a1.11 1.11 0 0 0-.008-1.12 1.1 1.1 0 0 0-.852-.533c-.522-.053-.939.314-1.049.546m-.04 8.46c.395.593.324 1.331-.156 1.65-.48.32-1.188.1-1.582-.493s-.324-1.33.156-1.65c.473-.316 1.182-.11 1.582.494m-11.193-.492c.48.32.55 1.058.156 1.65-.394.593-1.103.815-1.584.495-.48-.32-.55-1.058-.156-1.65.4-.603 1.109-.811 1.584-.495"/></svg>