<svg xmlns="http://www.w3.org/2000/svg" width="62.175" height="64" fill="#fff"><path d="M49.908 45.721h12.267v12.267a6 6 0 0 1-6 6H43.908V51.721a6 6 0 0 1 6-6z"/><path d="M62.174 32.122A32.82 32.82 0 0 0 53.717 9.43Q45.261 0 31.878 0q-14.116 0-23 9.126T0 32q0 13.87 9.065 22.935T32.609 64c.841 0 1.634-.076 2.445-.121v-9.961c-.721.053-1.442.105-2.2.105a23.257 23.257 0 0 1-14.541-4.5 20.041 20.041 0 0 1-7.484-12.652H61.81a31.948 31.948 0 0 0 .364-4.749zm-51.346-4.5a20.8 20.8 0 0 1 6.936-12.835q5.593-4.8 14.113-4.806a19.524 19.524 0 0 1 12.777 4.5q5.474 4.5 6.813 13.139z"/></svg>