<svg xmlns="http://www.w3.org/2000/svg" xmlns:xlink="http://www.w3.org/1999/xlink" width="280" height="280" viewBox="-8 0 280 280"><defs><path id="react-path-3" d="M124 144.611V163h4c39.765 0 72 32.235 72 72v9H0v-9c0-39.765 32.235-72 72-72h4v-18.389c-17.237-8.189-29.628-24.924-31.695-44.73C38.48 99.058 34 94.052 34 88V74c0-5.946 4.325-10.882 10-11.834V56c0-30.928 25.072-56 56-56s56 25.072 56 56v6.166c5.675.952 10 5.888 10 11.834v14c0 6.052-4.48 11.058-10.305 11.881-2.067 19.806-14.458 36.541-31.695 44.73"/></defs><g id="Avataaar" fill="none" fill-rule="evenodd" stroke="none" stroke-width="1"><g id="Avataaar/Circle"><g><g id="Circle" fill-rule="evenodd" stroke-width="1" transform="translate(12 40)"><mask id="react-mask-4" fill="#fff"><use xlink:href="#react-path-1"/></mask><use xlink:href="#react-path-1" id="Circle-Background" fill="#e6e6e6"/><g id="Color/Palette/Blue-01" fill="#65c9ff" mask="url(#react-mask-4)"><path id="🖍Color" d="M0 0h240v240H0Z"/></g></g><g id="Avataaar" fill-rule="evenodd" stroke-width="1" mask="url(#react-mask-5)"><g id="Body" transform="translate(32 36)"><mask id="react-mask-6" fill="#fff"><use xlink:href="#react-path-3"/></mask><use xlink:href="#react-path-3" fill="#d0c6ac"/><g id="Skin/👶🏽-03-Brown" fill="#edb98a" mask="url(#react-mask-6)"><path id="Color" d="M0 0h264v280H0Z"/></g><path id="Neck-Shadow" fill="#000" fill-opacity=".1" d="M156 79v23c0 30.928-25.072 56-56 56s-56-25.072-56-56V79v15c0 30.928 25.072 56 56 56s56-25.072 56-56Z" mask="url(#react-mask-6)"/></g><g id="Clothing/Hoodie" transform="translate(0 170)"><defs><path id="react-path-587" d="M108 13.07c-17.919 2.006-31.72 7.482-31.996 21.575C50.146 45.568 32 71.165 32 100.999V110h200v-9c0-29.835-18.146-55.432-44.004-66.355-.276-14.093-14.077-19.57-31.996-21.574V32c0 13.255-10.745 24-24 24s-24-10.745-24-24Z"/></defs><mask id="react-mask-588" fill="#fff"><use xlink:href="#react-path-587"/></mask><use xlink:href="#react-path-587" id="Hoodie" fill="#b7c1db" fill-rule="evenodd"/><g id="Color/Palette/Gray-01" fill="#fde047" fill-rule="evenodd" mask="url(#react-mask-588)"><path id="🖍Color" d="M0 0h264v110H0Z"/></g><path id="Straps" fill="#f4f4f4" fill-rule="evenodd" d="M102 61.74V110h-7V58.15a65 65 0 0 0 7 3.589m67-3.59V98.5a3.5 3.5 0 1 1-7 0V61.74a65 65 0 0 0 7-3.589" mask="url(#react-mask-588)"/><path id="Shadow" fill="#000" fill-opacity=".16" fill-rule="evenodd" d="M90.96 12.724C75.91 15.571 65.5 21.243 65.5 32.308 65.5 52.02 98.538 68 132 68s66.5-15.98 66.5-35.692c0-11.065-10.41-16.737-25.46-19.584 9.085 3.35 14.96 8.982 14.96 18.353C188 51.469 160.179 68 132 68S76 51.469 76 31.077c0-9.37 5.875-15.003 14.96-18.353" mask="url(#react-mask-588)"/></g><g id="Face" fill="#000" transform="translate(76 82)"><g id="Mouth/Twinkle" fill="#000" fill-opacity=".6" fill-rule="nonzero" transform="translate(2 52)"><path id="Mouth" d="M40 16c0 5.372 6.158 9 14 9s14-3.628 14-9c0-1.105-.95-2-2-2-1.293 0-1.87.905-2 2-1.242 2.938-4.317 4.716-10 5-5.683-.284-8.758-2.062-10-5-.13-1.095-.707-2-2-2-1.05 0-2 .895-2 2"/></g><g id="Nose/Default" fill-opacity=".16" transform="translate(28 40)"><path id="Nose" d="M16 8c0 4.418 5.373 8 12 8s12-3.582 12-8"/></g><g id="Eyes/Default-😀" fill-opacity=".6" transform="translate(0 8)"><circle id="Eye" cx="30" cy="22" r="6"/><circle id="Eye" cx="82" cy="22" r="6"/></g><g id="Eyebrow/Outline/Default" fill-opacity=".6"><g id="I-Browse" fill-rule="nonzero" transform="translate(12 6)"><path id="Eyebrow" d="M3.63 11.159C7.545 5.649 18.278 2.56 27.523 4.83a2 2 0 0 0 .954-3.885C17.74-1.69 5.312 1.888.37 8.842a2 2 0 0 0 3.26 2.317"/><path id="Eyebrow" d="M61.63 11.159c3.915-5.51 14.648-8.598 23.893-6.328a2 2 0 0 0 .954-3.885C75.74-1.69 63.312 1.888 58.37 8.842a2 2 0 0 0 3.26 2.317" transform="matrix(-1 0 0 1 146 0)"/></g></g></g><g id="Top" fill-rule="evenodd" stroke-width="1"><defs><path id="react-path-454" d="M167.309 35.006c-20.188-11.7-40.18-9.784-55.272-5.976s-24.02 14.621-31.68 30.618c-3.761 7.855-5.991 17.143-6.334 25.833-.135 3.412.325 6.934 1.245 10.22.337 1.205 2.155 5.386 2.654 2.008.167-1.125-.442-2.676-.5-3.871-.078-1.569.005-3.157.112-4.723.2-2.928.722-5.8 1.65-8.59 1.328-3.988 3.017-8.312 5.603-11.677 6.401-8.327 17.482-8.802 26.28-13.384-.764 1.405-3.707 3.68-2.688 5.263.705 1.094 3.37.762 4.643.727 3.349-.092 6.713-.674 10.02-1.147 5.214-.745 10.099-2.255 15.005-4.089 4.016-1.502 8.603-2.892 11.622-6.078 4.87 5.048 11.14 9.795 17.401 13.003 5.618 2.88 14.679 4.318 18.113 10.158 4.065 6.914 2.195 15.406 3.436 22.9.472 2.85 1.545 2.786 2.132.237.997-4.33 1.468-8.828 1.151-13.279-.718-10.048-4.405-36.453-24.593-48.153"/><path id="react-path-455" d="M0 0h264v280H0Z"/></defs><mask id="react-mask-453" fill="#fff"><use xlink:href="#react-path-455"/></mask><g id="Top/Short-Hair/Short-Round" mask="url(#react-mask-453)"><g transform="translate(-1)"><g id="Facial-Hair/Beard-Medium" transform="translate(49 72)"><defs><path id="react-path-540" d="M105.018 94.13c-3.868 5.591-6.76 1.817-10.88-1.254-2.481-1.849-6.177-4.148-9.634-4.035-3.456-.113-7.152 2.186-9.633 4.035-4.12 3.07-7.013 6.845-10.88 1.254-2.903-4.198-1.688-11.256 1.024-15.227 3.859-5.652 9.094-2.918 14.947-3.563 1.592-.175 3.19-.617 4.542-1.34 1.352.723 2.95 1.165 4.542 1.34 5.854.645 11.089-2.089 14.948 3.563 2.712 3.97 3.926 11.03 1.024 15.227M140.39 26c-3.424 14.075-4.998 28.434-7.481 42.671a319 319 0 0 1-1.685 8.878c-.127.62-.251 2.924-.862 3.215-1.851.884-5.624-3.817-6.633-4.879-2.533-2.666-5.045-5.356-8.13-7.448-6.235-4.227-13.535-6.726-21.13-7.32-3.178-.248-7.475.186-10.47 1.993-2.995-1.807-7.292-2.24-10.47-1.992-7.596.593-14.895 3.092-21.13 7.32-3.085 2.091-5.597 4.781-8.13 7.447-1.01 1.062-4.782 5.763-6.633 4.88-.61-.292-.735-2.595-.862-3.215a319 319 0 0 1-1.685-8.878C32.607 54.433 31.034 40.074 27.61 26c-.997 0-1.871 18.748-1.983 20.495-.452 7.094-.98 14.03-.305 21.131 1.164 12.249 2.377 27.608 11.71 36.962 8.434 8.451 20.678 10.218 31.24 15.553 1.36.687 3.163 1.535 5.108 2.23 2.049 1.563 6.113 2.629 10.794 2.629 4.91 0 9.142-1.173 11.08-2.862a47 47 0 0 0 4.474-1.997c10.56-5.336 22.806-7.102 31.24-15.553 9.333-9.354 10.546-24.713 11.71-36.962.675-7.1.147-14.037-.305-21.131C142.26 44.748 141.387 26 140.39 26"/></defs><mask id="react-mask-539" fill="#fff"><use xlink:href="#react-path-540"/></mask><use xlink:href="#react-path-540" id="Beardness" fill="#252e32" fill-rule="evenodd"/><g id="Color/Hair/Brown" fill="#a55728" mask="url(#react-mask-539)"><path id="Color" d="M0 0h264v244H0Z" transform="translate(-32)"/></g></g><mask id="react-mask-452" fill="#fff"><use xlink:href="#react-path-454"/></mask><use xlink:href="#react-path-454" id="Short-Hair" fill="#28354b" fill-rule="evenodd" stroke="none"/><g id="Skin/👶🏽-03-Brown" fill="#724133" mask="url(#react-mask-452)"><path id="Color" d="M0 0h264v280H0Z"/></g><g id="Top/_Resources/Round" fill="none" transform="translate(62 85)"><defs><filter id="react-filter-500" width="101.6%" height="108.3%" x="-.8%" y="-2.1%" filterUnits="objectBoundingBox"><feOffset dy="2" in="SourceAlpha" result="shadowOffsetOuter1"/><feColorMatrix in="shadowOffsetOuter1" values="0 0 0 0 0 0 0 0 0 0 0 0 0 0 0 0 0 0 0.1 0"/></filter><path id="react-path-499" d="M80.465 16.394C84.38 8.46 92.553 3 102 3c8.92 0 16.703 4.866 20.84 12.088q.316-.087.66-.088h8a2.5 2.5 0 1 1 0 5h-6.537A24 24 0 0 1 126 27c0 13.255-10.745 24-24 24S78 40.255 78 27c0-1.422.124-2.815.36-4.169C78.277 18.455 74.915 15 70.863 15c-3.736 0-6.887 2.94-7.42 6.83.365 1.665.558 3.395.558 5.17 0 13.255-10.745 24-24 24S16 40.255 16 27c0-2.435.363-4.785 1.037-7H10.5a2.5 2.5 0 1 1 0-5h8q.343 0 .66.088C23.297 7.866 31.08 3 40 3c9.352 0 17.455 5.35 21.416 13.155C63.493 13.039 66.949 11 70.862 11c4.013 0 7.545 2.144 9.603 5.394M40 47c11.046 0 20-8.954 20-20S51.046 7 40 7s-20 8.954-20 20 8.954 20 20 20m62 0c11.046 0 20-8.954 20-20s-8.954-20-20-20-20 8.954-20 20 8.954 20 20 20"/></defs><g id="Lennon-Glasses"><use xlink:href="#react-path-499" fill="#000" filter="url(#react-filter-500)"/><use xlink:href="#react-path-499" fill="#252c2f"/></g></g></g></g></g></g></g></g></g></svg>