<svg width="280" height="280" viewBox="-8 0 280 280" xmlns="http://www.w3.org/2000/svg" xmlns:xlink="http://www.w3.org/1999/xlink"><defs><path d="M12 160c0 66.274 53.726 120 120 120s120-53.726 120-120h12V0H0v160h12Z" id="path-3"/><path d="M124 144.611V163h4c39.765 0 72 32.235 72 72v9H0v-9c0-39.765 32.235-72 72-72h4v-18.389c-17.237-8.189-29.628-24.924-31.695-44.73C38.48 99.058 34 94.052 34 88V74c0-5.946 4.325-10.882 10-11.834V56c0-30.928 25.072-56 56-56s56 25.072 56 56v6.166c5.675.952 10 5.888 10 11.834v14c0 6.052-4.48 11.058-10.305 11.881-2.067 19.806-14.458 36.541-31.695 44.73Z" id="path-5"/><circle id="path-1" cx="120" cy="120" r="120"/></defs><g id="Avataaar" stroke="none" stroke-width="1" fill="none" fill-rule="evenodd"><g id="Avataaar/Circle"><g id="Avataaar" stroke-width="1" fill-rule="evenodd" mask="url('#mask-4')"><g id="Body" transform="translate(32 36)"><mask id="mask-6" fill="#fff"><use xlink:href="#path-5"/></mask><use fill="#D0C6AC" xlink:href="#path-5"/><g id="Skin/👶🏽-03-Brown" mask="url('#mask-6')" fill="#EDB98A"><path d="M0 0h264v244H0z" transform="translate(-32)" id="Color"/></g><path d="M156 79v23c0 30.928-25.072 56-56 56s-56-25.072-56-56V79v15c0 30.928 25.072 56 56 56s56-25.072 56-56V79Z" id="Neck-Shadow" fill-opacity=".1" fill="#000" mask="url('#mask-6')"/></g><g id="Clothing/Hoodie" transform="translate(0 170)"><defs><path d="M108 13.07c-17.919 2.006-31.72 7.482-31.996 21.575C50.146 45.568 32 71.165 32 100.999V110h200v-9c0-29.835-18.146-55.432-44.004-66.355-.276-14.093-14.077-19.57-31.996-21.574V32c0 13.255-10.745 24-24 24s-24-10.745-24-24V13.07Z" id="react-path-1"/></defs><mask id="react-mask-2" fill="#fff"><use xlink:href="#react-path-1"/></mask><use id="Hoodie" fill="#B7C1DB" fill-rule="evenodd" xlink:href="#react-path-1"/><g id="Color/Palette/Gray-01" mask="url('#react-mask-2')" fill-rule="evenodd" fill="#E6E6E6"><path id="🖍Color" d="M0 0h264v110H0z"/></g><path d="M102 61.74V110h-7V58.15a64.54 64.54 0 0 0 7 3.59Zm67-3.59V98.5a3.5 3.5 0 1 1-7 0V61.74a64.54 64.54 0 0 0 7-3.59Z" id="Straps" fill="#F4F4F4" fill-rule="evenodd" mask="url('#react-mask-2')"/><path d="M90.96 12.724C75.91 15.571 65.5 21.243 65.5 32.308 65.5 52.02 98.538 68 132 68s66.5-15.98 66.5-35.692c0-11.065-10.41-16.737-25.46-19.584 9.085 3.35 14.96 8.982 14.96 18.353C188 51.469 160.179 68 132 68S76 51.469 76 31.077c0-9.37 5.875-15.003 14.96-18.353Z" id="Shadow" fill-opacity=".16" fill="#000" fill-rule="evenodd" mask="url('#react-mask-2')"/></g><g id="Face" transform="translate(76 82)" fill="#000"><g id="Mouth/Twinkle" transform="translate(2 52)" fill-opacity=".6" fill-rule="nonzero" fill="#000"><path d="M40 16c0 5.372 6.158 9 14 9s14-3.628 14-9c0-1.105-.95-2-2-2-1.293 0-1.87.905-2 2-1.242 2.938-4.317 4.716-10 5-5.683-.284-8.758-2.062-10-5-.13-1.095-.707-2-2-2-1.05 0-2 .895-2 2Z" id="Mouth"/></g><g id="Nose/Default" transform="translate(28 40)" fill-opacity=".16"><path d="M16 8c0 4.418 5.373 8 12 8s12-3.582 12-8" id="Nose"/></g><g id="Eyes/Default-😀" transform="translate(0 8)" fill-opacity=".6"><circle id="Eye" cx="30" cy="22" r="6"/><circle id="Eye" cx="82" cy="22" r="6"/></g><g id="Eyebrow/Natural/Default-Natural" fill-opacity=".6"><path d="M26.04 6.21c-5.762.773-14.747 5.795-13.996 11.608.025.19.313.25.437.09 2.486-3.188 21.712-7.871 28.713-6.893.641.09 1.064-.572.627-.985-3.744-3.535-10.62-4.518-15.782-3.82" id="Eyebrow" transform="rotate(5 27 12)"/><path d="M85.04 6.21c-5.762.773-14.747 5.795-13.996 11.608.025.19.313.25.437.09 2.486-3.188 21.712-7.871 28.713-6.893.641.09 1.064-.572.627-.985-3.744-3.535-10.62-4.518-15.782-3.82" id="Eyebrow" transform="scale(-1 1) rotate(5 0 -1957.724)"/></g></g><g id="Top" stroke-width="1" fill-rule="evenodd"><defs><path id="react-path-7" d="M0 0h264v280H0z"/><path d="M167.309 35.006c-20.188-11.7-40.18-9.784-55.272-5.976-15.092 3.808-24.02 14.621-31.68 30.618-3.761 7.855-5.991 17.143-6.334 25.833-.135 3.412.325 6.934 1.245 10.22.337 1.205 2.155 5.386 2.654 2.008.167-1.125-.442-2.676-.5-3.871-.078-1.569.005-3.157.112-4.723.2-2.928.722-5.8 1.65-8.59 1.328-3.988 3.017-8.312 5.603-11.677 6.401-8.327 17.482-8.802 26.28-13.384-.764 1.405-3.707 3.68-2.688 5.263.705 1.094 3.37.762 4.643.727 3.349-.092 6.713-.674 10.02-1.147 5.214-.745 10.099-2.255 15.005-4.089 4.016-1.502 8.603-2.892 11.622-6.078 4.87 5.048 11.14 9.795 17.401 13.003 5.618 2.88 14.679 4.318 18.113 10.158 4.065 6.914 2.195 15.406 3.436 22.9.472 2.85 1.545 2.786 2.132.237.997-4.33 1.468-8.828 1.151-13.279-.718-10.048-4.405-36.453-24.593-48.153Z" id="react-path-6"/><filter x="-.8%" y="-2%" width="101.5%" height="108%" filterUnits="objectBoundingBox" id="react-filter-3"><feOffset dy="2" in="SourceAlpha" result="shadowOffsetOuter1"/><feColorMatrix values="0 0 0 0 0 0 0 0 0 0 0 0 0 0 0 0 0 0 0.16 0" in="shadowOffsetOuter1" result="shadowMatrixOuter1"/><feMerge><feMergeNode in="shadowMatrixOuter1"/><feMergeNode in="SourceGraphic"/></feMerge></filter></defs><mask id="react-mask-5" fill="#fff"><use xlink:href="#react-path-7"/></mask><g id="Top/Short-Hair/Short-Round" mask="url('#react-mask-5')"><g transform="translate(-1)"><g id="Facial-Hair/Beard-Light" transform="translate(49 72)"><defs><path d="M101.428 98.169c-2.513 2.294-5.19 3.325-8.575 2.604-.582-.124-2.957-4.538-8.853-4.538-5.897 0-8.27 4.414-8.853 4.538-3.385.721-6.062-.31-8.576-2.604-4.725-4.313-8.654-10.26-6.293-16.75 1.23-3.382 3.232-7.095 6.873-8.173 3.887-1.15 9.346-.002 13.264-.788 1.27-.254 2.656-.707 3.585-1.458.929.75 2.316 1.204 3.585 1.458 3.918.786 9.376-.362 13.264.788 3.64 1.078 5.642 4.79 6.873 8.173 2.361 6.49-1.568 12.437-6.294 16.75M140.081 26c-3.41 8.4-2.093 18.858-2.724 27.676-.513 7.167-2.02 17.91-8.384 22.539-3.255 2.367-9.179 6.345-13.431 5.235-2.927-.764-3.24-9.16-7.087-12.303-4.363-3.565-9.812-5.131-15.306-4.89-2.37.105-7.165.08-9.15 1.903-1.983-1.823-6.777-1.798-9.148-1.902-5.494-.242-10.943 1.324-15.306 4.889-3.847 3.143-4.16 11.54-7.087 12.303-4.252 1.11-10.176-2.868-13.431-5.235-6.365-4.63-7.87-15.372-8.384-22.54-.63-8.817.686-19.275-2.724-27.675-1.66 0-.565 16.129-.565 16.129v20.356c.032 15.288 9.581 38.17 30.754 46.908C63.286 111.53 75.015 115 84 115s20.714-3.14 25.892-5.277c21.173-8.737 30.722-31.95 30.754-47.238V42.13S141.74 26 140.081 26" id="react-path-9"/></defs><mask id="react-mask-8" fill="#fff"><use xlink:href="#react-path-9"/></mask><use id="Lite-Beard" fill="#331B0C" fill-rule="evenodd" xlink:href="#react-path-9"/><g id="Color/Hair/Brown" mask="url('#react-mask-8')" fill="#724133"><path d="M0 0h264v244H0z" transform="translate(-32)" id="Color"/></g></g><mask id="react-mask-4" fill="#fff"><use xlink:href="#react-path-6"/></mask><use id="Short-Hair" stroke="none" fill="#28354B" fill-rule="evenodd" xlink:href="#react-path-6"/><g id="Skin/👶🏽-03-Brown" mask="url('#react-mask-4')" fill="#724133"><path d="M0 0h264v280H0z" id="Color"/></g><g id="Top/_Resources/Round" fill="none" transform="translate(62 85)"><defs><filter x="-.8%" y="-2.1%" width="101.6%" height="108.3%" filterUnits="objectBoundingBox" id="react-filter-11"><feOffset dy="2" in="SourceAlpha" result="shadowOffsetOuter1"/><feColorMatrix values="0 0 0 0 0 0 0 0 0 0 0 0 0 0 0 0 0 0 0.1 0" in="shadowOffsetOuter1"/></filter><path d="M80.465 16.394C84.38 8.46 92.553 3 102 3c8.92 0 16.703 4.866 20.84 12.088.21-.057.432-.088.66-.088h8a2.5 2.5 0 1 1 0 5h-6.537A23.998 23.998 0 0 1 126 27c0 13.255-10.745 24-24 24S78 40.255 78 27c0-1.422.124-2.815.36-4.169C78.277 18.455 74.915 15 70.863 15c-3.736 0-6.887 2.94-7.42 6.83.365 1.665.558 3.395.558 5.17 0 13.255-10.745 24-24 24S16 40.255 16 27c0-2.435.363-4.785 1.037-7H10.5a2.5 2.5 0 1 1 0-5h8c.228 0 .45.03.66.088C23.297 7.866 31.08 3 40 3c9.352 0 17.455 5.35 21.416 13.155C63.493 13.039 66.949 11 70.862 11c4.013 0 7.545 2.144 9.603 5.394ZM40 47c11.046 0 20-8.954 20-20S51.046 7 40 7s-20 8.954-20 20 8.954 20 20 20Zm62 0c11.046 0 20-8.954 20-20s-8.954-20-20-20-20 8.954-20 20 8.954 20 20 20Z" id="react-path-10"/></defs><g id="Lennon-Glasses"><use fill="#000" filter="url('#react-filter-11')" xlink:href="#react-path-10"/><use fill="#252C2F" xlink:href="#react-path-10"/></g></g></g></g></g></g></g></g></svg>