<svg xmlns="http://www.w3.org/2000/svg" fill="#fff" viewBox="0 0 24 24"><title>Visual Basic</title><path d="M6.363 17.719a7.6 7.6 0 0 1 .34-1.348L10.887 4.5h1.863l-5.473 15h-1.91L0 4.5h1.934l4.09 11.895q.117.327.187.656c.07.329.098.441.152.668M20.66 11.53q.75.094 1.371.375c.621.281.766.442 1.055.762s.512.691.668 1.113.238.89.246 1.406q0 1.044-.398 1.84c-.398.796-.622.98-1.067 1.348s-.96.645-1.547.832-1.203.285-1.851.293h-4.371v-15h4.265q.81 0 1.559.2c.749.2.95.335 1.348.609s.714.628.949 1.066.355.957.363 1.559q0 1.289-.68 2.226c-.68.937-1.09 1.067-1.91 1.324Zm-4.137-.597h1.793q.645 0 1.207-.153c.562-.153.704-.258.985-.469s.5-.488.656-.832.238-.746.246-1.207q0-.645-.234-1.066c-.234-.421-.367-.504-.633-.668s-.57-.277-.914-.34-.707-.097-1.09-.105h-2.016Zm2.38 6.972q.655 0 1.242-.152c.587-.152.738-.262 1.043-.48s.539-.5.703-.844.254-.762.27-1.254q0-.809-.306-1.324c-.306-.515-.476-.614-.82-.809s-.73-.332-1.16-.41-.875-.117-1.336-.117h-2.016v5.39Z"/></svg>