<?xml version="1.0" encoding="iso-8859-1"?>
<!-- Generator: Adobe Illustrator 16.0.0, SVG Export Plug-In . SVG Version: 6.00 Build 0)  -->
<!DOCTYPE svg PUBLIC "-//W3C//DTD SVG 1.1//EN" "http://www.w3.org/Graphics/SVG/1.1/DTD/svg11.dtd">
<svg x="0px" y="0px"
	 width="97.75px" height="97.75px" viewBox="0 0 97.75 97.75" style="enable-background:new 0 0 97.75 97.75;" xml:space="preserve"
	>
	<path fill="#000000" fill-opacity="0.38" d="M48.875,0C21.882,0,0,21.882,0,48.875S21.882,97.75,48.875,97.75S97.75,75.868,97.75,48.875S75.868,0,48.875,0z
		 M67.812,60.096c-0.283,4.973-1.896,9.471-4.871,13.469c-1.498,2.015-3.213,3.814-5.235,5.312c-2.595,1.92-5.479,3.18-8.634,3.842
		c-2.335,0.491-4.694,0.625-7.068,0.508c-2.561-0.125-5.057-0.603-7.458-1.521c-2.577-0.985-4.889-2.409-6.92-4.276
		c-2.744-2.522-4.908-5.469-6.393-8.898c-0.918-2.122-1.498-4.334-1.789-6.629c-0.206-1.627-0.261-3.258-0.174-4.891
		c0.304-5.676,2.271-10.696,5.962-15.032c1.663-1.954,3.547-3.658,5.727-5.022c2.29-1.433,4.763-2.411,7.412-2.937
		c2.211-0.439,4.441-0.591,6.695-0.463c2.106,0.12,4.168,0.472,6.177,1.117c0.233,0.076,0.487,0.117,0.72,0.3
		c-0.425,0.91-0.835,1.824-1.143,2.78c-0.305,0.956-0.508,1.935-0.637,2.968c-0.188-0.058-0.324-0.091-0.453-0.14
		c-1.481-0.576-3.022-0.918-4.604-1.042c-1.234-0.097-2.474-0.09-3.71,0.055c-1.397,0.165-2.754,0.479-4.07,0.976
		c-2.039,0.771-3.849,1.916-5.468,3.368c-2.099,1.882-3.779,4.074-4.929,6.658c-0.771,1.734-1.248,3.549-1.475,5.434
		c-0.186,1.539-0.219,3.08-0.065,4.621c0.262,2.621,1.016,5.095,2.273,7.412c1.18,2.172,2.691,4.068,4.642,5.6
		c2.256,1.771,4.792,2.932,7.61,3.482c0.245,0.047,0.453,0.021,0.674-0.07c2.064-0.856,3.886-2.08,5.489-3.633
		c1.744-1.688,3.128-3.646,4.282-5.772c1.296-2.394,2.257-4.922,3.021-7.528c0.621-2.121,1.099-4.274,1.471-6.451
		c0.296-1.733,0.52-3.478,0.697-5.229c0.39-3.792,0.49-7.594,0.412-11.402c-0.015-0.65-0.055-1.402-0.082-2.134
		c-0.053-0.393-0.072-0.536-0.086-0.618l-0.158-0.291c-0.536-1.388-1.049-2.786-1.608-4.164c-2.044-5.024-4.437-9.879-7.161-14.57
		c-0.117-0.202-0.237-0.402-0.348-0.606c-0.021-0.037,0.002-0.096,0.008-0.193c0.185,0.148,0.341,0.266,0.489,0.393
		c1.567,1.342,2.854,2.926,3.969,4.653c1.618,2.506,2.772,5.22,3.587,8.084c0.6,2.11,0.995,4.259,1.225,6.439
		c0.004,0.027,0.008,0.157,0.008,0.229c0.014,0.077,0.031,0.203,0.088,0.618c0.062,0.112,0.148,0.301,0.179,0.378
		c0.937,2.511,1.664,5.081,2.127,7.72c0.408,2.321,0.614,4.662,0.563,7.021c-0.108,4.828-1.197,9.422-3.338,13.752
		c-2.575,5.209-6.219,9.541-10.843,13.053c-0.229,0.173-0.46,0.342-0.689,0.515c-0.01,0.007-0.008,0.03-0.027,0.13
		c0.445-0.017,0.857-0.012,1.267-0.049c4.425-0.402,8.238-2.126,11.339-5.33c2.123-2.193,3.562-4.802,4.455-7.715
		c0.594-1.938,0.854-3.927,0.83-5.948c-0.028-2.425-0.426-4.786-1.322-7.05c-0.033-0.083-0.062-0.169-0.09-0.254
		c-0.01-0.033-0.006-0.07-0.012-0.128c0.645-0.19,1.299-0.36,1.937-0.582c0.626-0.218,1.243-0.465,1.845-0.742
		c0.618-0.284,1.213-0.618,1.842-0.942c0.055,0.111,0.115,0.217,0.161,0.332c0.646,1.604,1.081,3.269,1.364,4.972
		C67.831,56.04,67.927,58.064,67.812,60.096z M78.477,29.551c-0.123,1.978-0.5,3.914-1.144,5.792
		c-0.312,0.903-0.757,1.744-1.237,2.565c-0.83,1.418-1.814,2.716-3.066,3.795c-1.289,1.113-2.76,1.86-4.446,2.153
		c-1.392,0.243-2.752,0.123-4.089-0.318c-1.419-0.468-2.661-1.241-3.799-2.194c-0.301-0.253-0.586-0.524-0.889-0.794
		c0.123-0.207,0.318-0.268,0.48-0.363c2.223-1.289,4.365-2.7,6.408-4.256c1.688-1.286,3.295-2.664,4.709-4.252
		c0.813-0.915,1.545-1.889,2.088-2.994c0.244-0.502,0.438-1.022,0.559-1.568c0.021-0.097,0.016-0.199,0.028-0.412
		c-3.614,6.297-8.845,10.28-15.804,11.985c-0.086-0.115-0.147-0.18-0.189-0.256c-0.854-1.548-1.359-3.202-1.438-4.971
		c-0.096-2.165,0.545-4.102,1.869-5.818c0.713-0.923,1.576-1.663,2.582-2.248c1.469-0.852,3.037-1.457,4.659-1.932
		c0.189-0.056,0.382-0.107,0.571-0.154c2.202-0.539,4.066-1.671,5.686-3.234c1.067-1.031,1.934-2.216,2.627-3.527
		c0.104-0.202,0.219-0.399,0.356-0.65c0.185,0.292,0.341,0.53,0.483,0.776c1.006,1.734,1.735,3.58,2.258,5.512
		C78.391,24.603,78.63,27.06,78.477,29.551z"/>
</svg>
